<?xml version="1.0" encoding="UTF-8"?>
<!DOCTYPE svg PUBLIC "-//W3C//DTD SVG 1.1//EN" "http://www.w3.org/Graphics/SVG/1.1/DTD/svg11.dtd">
<!-- Creator: CorelDRAW 2019 (64-Bit) -->
<svg xmlns="http://www.w3.org/2000/svg" xml:space="preserve" width="152px" height="150px" version="1.1" style="shape-rendering:geometricPrecision; text-rendering:geometricPrecision; image-rendering:optimizeQuality; fill-rule:evenodd; clip-rule:evenodd"
viewBox="0 0 152 150.003"
 xmlns:xlink="http://www.w3.org/1999/xlink"
 xmlns:xodm="http://www.corel.com/coreldraw/odm/2003">
 <defs>
  <style type="text/css">
   <![CDATA[
    .str0 {stroke:#2B2A29;stroke-width:0.288;stroke-miterlimit:22.9256}
    .fil1 {fill:#2B2A29}
    .fil2 {fill:#D10056}
    .fil3 {fill:#2B2A29;fill-rule:nonzero}
    .fil0 {fill:#D10056;fill-rule:nonzero}
   ]]>
  </style>
 </defs>
 <g id="Layer_x0020_1">
  <metadata id="CorelCorpID_0Corel-Layer"/>
  <g id="_1965980833520">
   <path class="fil0" d="M44.351 75.717l-6.38 -1.421c-2.266,-0.477 -3.865,-0.721 -4.789,-0.721 -4.237,0 -7.831,1.787 -10.782,5.361 -1.212,1.472 -2.159,3.056 -2.827,4.741 -0.561,1.523 -0.874,3.188 -0.94,4.985 0,1.29 0.297,2.488 0.89,3.594 0.586,0.833 1.476,1.279 2.671,1.341 2.391,0 4.32,-1.787 5.795,-5.361 1.204,-2.894 1.822,-5.909 1.871,-9.057l0.099 -0.487 0.107 0.122 0.338 0.853 0.305 1.218 0.239 1.452 0.05 1.513c0,2.883 -0.61,5.279 -1.822,7.208 -1.475,2.285 -3.734,3.462 -6.776,3.523 -1.376,0 -2.497,-0.507 -3.371,-1.533 -0.676,-1.076 -1.039,-2.467 -1.088,-4.142 0,-3.635 1.401,-7.198 4.204,-10.701 3.19,-3.787 7.196,-5.716 12.026,-5.798l12.604 0.874 4.015 0.172 3.61 0.122 9.34 0.548c1.673,0 2.934,-0.183 3.808,-0.548 0.882,-0.355 1.904,-1.249 3.066,-2.68 -0.131,0.65 -0.255,1.157 -0.387,1.512 -0.157,0.477 -0.404,0.985 -0.75,1.533 -0.487,1.016 -1.278,1.94 -2.366,2.792 -0.182,0.112 -0.651,0.315 -1.385,0.62 -0.412,0.142 -1.055,0.305 -1.937,0.487 -0.033,0 -1.146,0.041 -3.355,0.122 -2.712,0 -5.333,-0.183 -7.872,-0.558 -0.586,-0.051 -1.129,-0.112 -1.632,-0.173 -0.643,-0.101 -1.369,-0.264 -2.176,-0.487l-4.403 -1.026zm8.607 37.404c-1.682,0 -2.968,-0.549 -3.85,-1.655 -1.195,-1.391 -1.789,-3.858 -1.789,-7.371 0,-3.696 0.907,-7.656 2.721,-11.879 1.599,-3.838 3.643,-7.188 6.132,-10.051l1.088 -1.107 1.097 -0.904c0.733,-0.558 1.64,-1.127 2.72,-1.706l0.14 0.122 -0.239 0.305c-2.201,2.031 -4.377,5.513 -6.529,10.478 -2.093,4.802 -3.165,9.31 -3.214,13.523 0,1.32 0.099,2.498 0.288,3.544 0.223,0.995 0.561,1.787 0.989,2.376 0.849,1.228 2.02,1.837 3.512,1.837l1.888 -0.203 1.483 -0.345 -0.444 0.599c-1.996,1.543 -3.999,2.355 -5.993,2.437zm-17.699 -0.376c0.273,-1.096 0.644,-2.437 1.122,-4 0.478,-1.564 1.047,-3.32 1.714,-5.28 0.668,-1.959 1.451,-4.193 2.358,-6.69 1.302,-3.483 2.085,-5.635 2.365,-6.458 1.723,-4.558 2.845,-7.482 3.364,-8.762 0.313,-0.761 0.997,-1.492 2.027,-2.203l2.77 -1.452 0 0.305c-1.088,1.807 -2.473,5.036 -4.155,9.686 -1.112,3.086 -2.555,7.594 -4.343,13.523l-1.394 4.874 -1.673 6.457 -4.155 0zm-5.044 -14.61l2.967 -9.016c1.105,-3.218 2.16,-5.543 3.165,-6.944 0.85,-1.249 1.657,-2.173 2.424,-2.752 0.75,-0.609 1.69,-1.208 2.811,-1.817 -1.08,1.086 -2.251,3.705 -3.512,7.858l-3.214 11.818c-0.874,2.924 -1.863,5.503 -2.968,7.737 -1.294,2.467 -2.794,4.294 -4.501,5.472 -1.17,0.853 -2.604,1.533 -4.303,2.02l-2.423 0.417 -2.465 0.193c-2.25,0 -3.998,-0.61 -5.243,-1.818 -0.898,-0.985 -1.343,-2.264 -1.343,-3.848 0,-1.837 0.808,-3.391 2.432,-4.65 1.525,-1.238 3.28,-1.888 5.242,-1.949l0.594 0 0.395 0.254 0.099 0.122c-2.093,0 -3.94,0.568 -5.539,1.715 -1.566,1.077 -2.374,2.559 -2.423,4.448 0,1.441 0.593,2.68 1.788,3.705 0.923,0.741 2.144,1.107 3.652,1.107 2.869,0 5.407,-1.421 7.617,-4.275 1.615,-2.101 3.19,-5.36 4.748,-9.797zm31.835 9.371c0,-1.848 0.808,-3.371 2.423,-4.559 1.624,-1.218 3.413,-1.827 5.358,-1.827l0.495 0 0.288 0.112 0.099 0.121 -0.14 0.122c-1.995,0 -3.792,0.569 -5.391,1.706 -1.508,1.086 -2.283,2.538 -2.333,4.386 0,1.442 0.528,2.64 1.583,3.594 1.047,0.853 2.333,1.279 3.866,1.279 4.237,0 7.419,-2.883 9.537,-8.65l2.078 -6.883 -1.723 0.619c-0.264,0.071 -0.454,0.152 -0.594,0.233 -0.123,0 -0.288,0.081 -0.494,0.254l-1.138 0.731 -0.346 0.112 -0.099 -0.112 0.338 -0.315c0.767,-0.589 1.525,-1.076 2.283,-1.462l1.979 -0.791 1.583 -5.544c1.285,-4.305 2.802,-7.797 4.541,-10.478 1.121,-1.797 2.473,-3.422 4.056,-4.873l-1.039 -0.427 -1.632 -0.416 -2.077 -0.254 -0.94 -0.061c-5.605,0 -10.114,1.93 -13.543,5.787 -2.877,3.229 -4.344,6.843 -4.41,10.844 0,1.726 0.329,3.086 0.989,4.081 0.651,0.975 1.64,1.462 2.967,1.462 2.383,0 4.476,-1.929 6.282,-5.787 1.508,-3.218 2.283,-6.407 2.333,-9.564l0.049 -0.365 0.091 -0.122 0.305 1.827 0.098 2.325c0,3.29 -0.601,6.031 -1.788,8.224 -1.517,2.813 -3.883,4.254 -7.114,4.315 -1.624,0 -2.86,-0.589 -3.718,-1.756 -0.775,-1.198 -1.186,-2.762 -1.236,-4.701 0,-4.011 1.533,-7.797 4.599,-11.331 1.773,-2.01 3.85,-3.523 6.232,-4.568 2.349,-0.955 4.979,-1.463 7.914,-1.524 2.052,0 3.404,0.082 4.055,0.244l1.385 0.254 1.583 0.609 1.344 -0.609 1.632 -0.315 0.989 0.061 -0.206 0.061c-0.413,0 -0.973,0.183 -1.682,0.548l-0.89 0.731c1.22,0.508 2.168,1.219 2.827,2.143 1.162,1.441 1.772,3.238 1.822,5.411 0,3.249 -1.088,6.031 -3.264,8.346 -1.105,1.025 -3.149,2.294 -6.133,3.777l-1.583 0.609 -1.434 0.365c-1.575,6.183 -3.85,10.834 -6.825,13.951 -2.548,2.538 -5.779,3.837 -9.694,3.898 -1.979,0 -3.578,-0.507 -4.798,-1.523 -1.113,-1.005 -1.69,-2.446 -1.739,-4.325zm29.584 -31.261c-1.063,1.757 -2.003,3.736 -2.819,5.92 -1.038,2.792 -2.192,6.934 -3.454,12.427 0.635,-0.132 1.262,-0.335 1.871,-0.62 2.012,-0.822 3.578,-1.909 4.707,-3.279 1.195,-1.655 1.822,-4.193 1.871,-7.615 0,-1.756 -0.214,-3.157 -0.643,-4.193 -0.387,-1.086 -0.898,-1.959 -1.533,-2.64zm27.746 24.377l10.981 -26.935 4.649 -0.417 -13.099 31.87c-0.775,1.99 -1.187,3.635 -1.236,4.935 0,1.36 0.528,2.071 1.583,2.132 0.956,0 2.11,-0.894 3.454,-2.68 0.98,-1.401 2.019,-3.067 3.116,-5.006l0.304 -0.366 0.14 -0.06 0.206 0.314c0,0.274 -0.065,0.518 -0.206,0.731 -1.319,2.447 -2.341,4.092 -3.066,4.935 -1.542,1.949 -3.009,2.964 -4.393,3.046 -1.493,0 -2.614,-0.427 -3.372,-1.27 -0.594,-0.873 -0.89,-2 -0.89,-3.37 0,-0.853 0.033,-1.371 0.107,-1.574l0.288 -1.655c-1.088,2.335 -2.324,4.213 -3.709,5.666 -1.302,1.35 -2.588,2.061 -3.849,2.121 -1.979,0 -3.487,-0.69 -4.509,-2.071 -0.809,-1.167 -1.237,-2.853 -1.287,-5.046l0.157 -2.132c0,-0.284 0.066,-0.67 0.19,-1.157 0.107,-0.528 0.222,-0.985 0.354,-1.401 0.305,-1.391 1.088,-3.564 2.366,-6.509l2.077 -4.517 2.918 -5.656c1.088,-2.081 1.632,-4.284 1.632,-6.589 0,-1.817 -0.445,-3.34 -1.327,-4.569 -0.849,-1.218 -2.151,-1.827 -3.915,-1.827 -3.685,0 -6.9,1.929 -9.645,5.787 -2.473,3.462 -3.709,7.077 -3.709,10.833 0,1.594 0.346,2.985 1.039,4.153 0.659,0.984 1.747,1.512 3.264,1.573 2.176,0 3.965,-1.909 5.341,-5.726 1.072,-3.117 1.633,-6.203 1.682,-9.249l-0.049 -1.219 0.098 -0.487 0.099 -0.172 0.206 0.172 0.289 0.792c0.396,1.635 0.594,3.381 0.594,5.249 0,3.249 -0.61,5.868 -1.831,7.848 -1.418,2.285 -3.561,3.462 -6.429,3.523 -1.64,0 -2.877,-0.609 -3.71,-1.817 -0.775,-1.198 -1.187,-2.761 -1.236,-4.701 0,-3.898 1.27,-7.655 3.808,-11.269 2.82,-4.011 6.207,-6.021 10.139,-6.021 2.754,0 4.946,1.035 6.587,3.106 0.577,0.833 1.088,1.909 1.533,3.229 0.396,1.249 0.593,2.65 0.593,4.203 0,1.381 -0.082,2.498 -0.255,3.351 -0.165,1.107 -0.594,2.569 -1.278,4.386 -0.733,1.929 -1.591,3.97 -2.572,6.142l-3.965 8.173c-0.989,2.082 -1.483,3.971 -1.483,5.676 0,2.071 0.741,3.107 2.234,3.107 1.697,0 3.857,-2.132 6.47,-6.396 0.891,-1.574 1.731,-3.3 2.522,-5.189z"/>
   <g>
    <polygon class="fil1 str0" points="74.215,67.701 49.33,5.467 50.793,4.882 75.678,67.117 "/>
    <path class="fil1 str0" d="M62.32 36.932l8.454 21.143c-14.016,5.605 -29.168,0.681 -33.837,-10.994 -4.668,-11.676 2.912,-25.689 16.928,-31.293l8.455 21.144z"/>
   </g>
   <g>
    <polygon class="fil1 str0" points="78.893,66.371 105.178,4.715 106.627,5.333 80.342,66.989 "/>
    <path class="fil1 str0" d="M92.178 36.175l-8.93 20.948c-13.886,-5.92 -21.148,-20.101 -16.216,-31.668 4.931,-11.567 20.19,-16.147 34.076,-10.227l-8.93 20.947z"/>
   </g>
   <g>
    <polygon class="fil1 str0" points="82.697,69.496 144.618,43.841 145.221,45.296 83.3,70.951 "/>
    <path class="fil1 str0" d="M113.317 57.22l-21.037 8.716c-5.778,-13.945 -1.043,-29.157 10.574,-33.97 11.616,-4.814 25.723,2.592 31.501,16.538l-21.038 8.716z"/>
   </g>
   <polygon class="fil2" points="7.484,44.91 70.486,71.244 69.702,73.119 6.7,46.786 "/>
   <path class="fil3" d="M45.064 127.628c1.106,0.649 1.969,1.672 2.59,3.068 0.62,1.397 0.931,2.871 0.931,4.422 0,2.342 -0.58,4.359 -1.741,6.052 -1.294,1.861 -2.98,2.792 -5.057,2.792l-13.839 0 0 -18.153c0,-2.765 0.842,-4.972 2.528,-6.622 1.687,-1.651 4.041,-2.476 7.062,-2.476l9.469 0 0 6.686 -9.469 0c-0.648,0 -1.052,0.338 -1.214,1.015 -0.162,0.678 -0.243,1.749 -0.243,3.216l0 8.929 1.173 0c0.945,0 1.66,-0.162 2.145,-0.487 0.486,-0.324 0.728,-0.698 0.728,-1.121 0,-0.451 -0.256,-0.889 -0.768,-1.312 -0.513,-0.423 -1.12,-0.634 -1.821,-0.634l-0.284 0 0 -5.671 0.971 -0.381 1.417 -0.211 2.145 0.211 3.277 0.677zm4.087 16.334l0 -18.449c0,-2.06 0.688,-4.034 2.064,-5.925 1.7,-2.313 3.925,-3.469 6.677,-3.469l0.566 0c2.617,0 4.87,0.804 6.758,2.411 2.077,1.778 3.116,4.105 3.116,6.983l0 0.804c0,2.623 -0.729,4.809 -2.185,6.559 -1.7,2.059 -4.168,3.089 -7.405,3.089l-0.567 -0.127 0 -7.575 0.283 0.085c0.675,0 1.214,-0.226 1.619,-0.677 0.404,-0.452 0.607,-0.959 0.607,-1.524 0,-0.508 -0.135,-0.945 -0.405,-1.311 -0.27,-0.367 -0.688,-0.55 -1.254,-0.55 -0.836,0 -1.383,0.239 -1.639,0.719 -0.256,0.48 -0.385,1.354 -0.385,2.623l0 16.334 -7.85 0zm19.869 0l0 -17.222c0,-2.793 0.836,-5.163 2.508,-7.109 1.835,-2.144 4.29,-3.216 7.365,-3.216 2.752,0 5.018,0.818 6.799,2.454 2.05,1.89 3.075,4.612 3.075,8.167l0 16.926 -8.134 0 0 -7.828 -2.306 0 0 -7.278 2.306 0 0 -2.709c0,-0.592 -0.169,-1.051 -0.506,-1.375 -0.337,-0.324 -0.748,-0.486 -1.234,-0.486 -0.485,0 -0.897,0.162 -1.234,0.486 -0.337,0.324 -0.505,0.783 -0.505,1.375l0 17.815 -8.134 0zm24.684 0l0 -19.338 -4.33 0 0 -7.617 16.712 0 0 7.617 -4.33 0 0 19.338 -8.052 0zm12.908 0l0 -17.222c0,-2.793 0.836,-5.163 2.509,-7.109 1.834,-2.144 4.289,-3.216 7.364,-3.216 2.752,0 5.018,0.818 6.799,2.454 2.05,1.89 3.075,4.612 3.075,8.167l0 16.926 -8.134 0 0 -7.828 -2.306 0 0 -7.278 2.306 0 0 -2.709c0,-0.592 -0.169,-1.051 -0.506,-1.375 -0.337,-0.324 -0.748,-0.486 -1.234,-0.486 -0.485,0 -0.897,0.162 -1.234,0.486 -0.337,0.324 -0.505,0.783 -0.505,1.375l0 17.815 -8.134 0z"/>
  </g>
 </g>
</svg>
